<?xml version="1.0" standalone="no"?>
<!DOCTYPE svg PUBLIC "-//W3C//DTD SVG 20010904//EN"
 "http://www.w3.org/TR/2001/REC-SVG-20010904/DTD/svg10.dtd">
<svg version="1.0" xmlns="http://www.w3.org/2000/svg"
 width="160.000000pt" height="160.000000pt" viewBox="0 0 160.000000 160.000000"
 preserveAspectRatio="xMidYMid meet">
<metadata>
Created by potrace 1.14, written by Peter Selinger 2001-2017
</metadata>
<g transform="translate(0.000000,160.000000) scale(0.100000,-0.100000)"
fill="#000000" stroke="none">
<path d="M564 1274 c-115 -63 -210 -114 -212 -114 -2 0 -16 -8 -30 -18 -15
-11 -61 -37 -102 -59 -252 -133 -254 -137 -120 -210 225 -121 218 -116 203
-135 -6 -7 -11 -50 -11 -96 -1 -67 -5 -88 -22 -109 -31 -40 -19 -153 17 -153
8 0 12 -3 10 -7 -3 -5 -8 -48 -12 -98 -7 -106 2 -128 55 -128 49 0 61 23 54
107 -2 39 -6 80 -8 91 -7 39 14 47 47 19 58 -49 174 -96 273 -110 87 -13 233
-3 319 20 65 18 150 65 193 106 68 64 75 87 77 243 l1 137 106 60 c59 33 111
60 117 60 6 0 11 3 11 8 0 4 14 15 30 24 36 21 40 54 8 69 -13 6 -36 18 -53
27 -28 16 -96 54 -210 117 -27 15 -111 62 -185 103 -279 156 -274 153 -315
157 -27 3 -73 -19 -241 -111z"/>
</g>
</svg>
